<?xml version="1.0" encoding="UTF-8"?>
<svg version="1.1" xmlns="http://www.w3.org/2000/svg" width="100" height="100">
<path d="M0 0 C9.40707465 5.68464327 15.68680199 13.83643636 18.546875 24.5390625 C19.81816587 35.18018906 19.08411233 45.14253855 13.546875 54.5390625 C12.556875 55.5290625 12.556875 55.5290625 11.546875 56.5390625 C13.031875 57.0340625 13.031875 57.0340625 14.546875 57.5390625 C14.546875 58.8590625 14.546875 60.1790625 14.546875 61.5390625 C13.226875 61.5390625 11.906875 61.5390625 10.546875 61.5390625 C10.216875 60.8790625 9.886875 60.2190625 9.546875 59.5390625 C9.01320313 59.99796875 8.47953125 60.456875 7.9296875 60.9296875 C-2.56169886 69.56965274 -11.91574525 71.83539098 -25.31445312 70.80957031 C-34.8744138 69.60038807 -42.8797787 64.22976046 -48.828125 56.828125 C-51.453125 53.09114583 -51.453125 53.09114583 -51.453125 50.5390625 C-52.2575 50.5596875 -53.061875 50.5803125 -53.890625 50.6015625 C-56.453125 50.5390625 -56.453125 50.5390625 -57.453125 49.5390625 C-57.578125 46.5390625 -57.578125 46.5390625 -57.453125 43.5390625 C-56.958125 43.0440625 -56.958125 43.0440625 -56.453125 42.5390625 C-56.37687052 40.5797461 -56.30610979 38.62003955 -56.26513672 36.65966797 C-55.96707395 24.96481162 -53.82146128 15.03480794 -45.4765625 6.2890625 C-32.87910695 -4.60603419 -15.10756629 -7.47031593 0 0 Z " fill="#61432D" transform="translate(68.453125,16.4609375)"/>
<path d="M0 0 C9.40707465 5.68464327 15.68680199 13.83643636 18.546875 24.5390625 C19.81816587 35.18018906 19.08411233 45.14253855 13.546875 54.5390625 C12.556875 55.5290625 12.556875 55.5290625 11.546875 56.5390625 C13.031875 57.0340625 13.031875 57.0340625 14.546875 57.5390625 C14.546875 58.8590625 14.546875 60.1790625 14.546875 61.5390625 C13.226875 61.5390625 11.906875 61.5390625 10.546875 61.5390625 C10.216875 60.8790625 9.886875 60.2190625 9.546875 59.5390625 C9.01320313 59.99796875 8.47953125 60.456875 7.9296875 60.9296875 C-2.56169886 69.56965274 -11.91574525 71.83539098 -25.31445312 70.80957031 C-34.8744138 69.60038807 -42.8797787 64.22976046 -48.828125 56.828125 C-51.453125 53.09114583 -51.453125 53.09114583 -51.453125 50.5390625 C-52.2575 50.5596875 -53.061875 50.5803125 -53.890625 50.6015625 C-56.453125 50.5390625 -56.453125 50.5390625 -57.453125 49.5390625 C-57.578125 46.5390625 -57.578125 46.5390625 -57.453125 43.5390625 C-56.958125 43.0440625 -56.958125 43.0440625 -56.453125 42.5390625 C-56.37687052 40.5797461 -56.30610979 38.62003955 -56.26513672 36.65966797 C-55.96707395 24.96481162 -53.82146128 15.03480794 -45.4765625 6.2890625 C-32.87910695 -4.60603419 -15.10756629 -7.47031593 0 0 Z M-39.98242188 11.00976562 C-42.18687416 14.80095514 -42.02588197 18.22398945 -41.984375 22.5390625 C-41.9882019 23.41175781 -41.99202881 24.28445312 -41.99597168 25.18359375 C-41.9986899 27.02605342 -41.99133494 28.86855174 -41.97460938 30.7109375 C-41.95319748 33.52952184 -41.97441301 36.34555735 -42 39.1640625 C-41.99735671 40.95573479 -41.99223169 42.74740549 -41.984375 44.5390625 C-41.99247192 45.38082031 -42.00056885 46.22257812 -42.00891113 47.08984375 C-41.95143692 50.6800538 -41.80891928 52.93422976 -39.96655273 56.06616211 C-36.31362161 58.20682587 -32.8253174 58.13047792 -28.70703125 58.10546875 C-27.85890366 58.11166733 -27.01077606 58.11786591 -26.13694763 58.12425232 C-24.34578599 58.13134625 -22.55455836 58.12818385 -20.76342773 58.11547852 C-18.02789428 58.10162464 -15.29579078 58.13567109 -12.56054688 58.17382812 C-10.8177075 58.17477949 -9.07486385 58.17291954 -7.33203125 58.16796875 C-6.5173085 58.18122696 -5.70258575 58.19448517 -4.86317444 58.20814514 C-0.83659763 58.14239379 1.1229974 57.81798714 4.5625 55.5546875 C7.24438691 51.47906408 7.25359365 48.4417624 7.17578125 43.66015625 C7.17819321 42.81107193 7.18060516 41.96198761 7.18309021 41.08717346 C7.1821134 39.29773269 7.16875935 37.50826109 7.14379883 35.71899414 C7.10943749 32.981541 7.12315944 30.24730847 7.14257812 27.50976562 C7.13568068 25.76821545 7.12600921 24.02667358 7.11328125 22.28515625 C7.11824112 21.46840927 7.12320099 20.65166229 7.12831116 19.81016541 C7.05817648 16.42499101 6.79986015 13.97076847 5.07397461 11.02563477 C1.28687687 8.79786565 -2.13140487 8.96624159 -6.453125 9.0078125 C-7.76216797 9.00207214 -7.76216797 9.00207214 -9.09765625 8.99621582 C-10.94011592 8.9934976 -12.78261424 9.00085256 -14.625 9.01757812 C-17.44358434 9.03899002 -20.25961985 9.01777449 -23.078125 8.9921875 C-24.86979729 8.99483079 -26.66146799 8.99995581 -28.453125 9.0078125 C-29.29488281 8.99971558 -30.13664062 8.99161865 -31.00390625 8.98327637 C-34.58448919 9.04059646 -36.85074262 9.18879692 -39.98242188 11.00976562 Z " fill="#E5ECB6" transform="translate(68.453125,16.4609375)"/>
<path d="M0 0 C0.87789688 -0.0066568 1.75579376 -0.0133136 2.66029358 -0.02017212 C4.51886903 -0.03030678 6.37748093 -0.03498889 8.23608398 -0.03466797 C11.0831281 -0.03904019 13.92862112 -0.07534731 16.77539062 -0.11328125 C18.57942177 -0.11914939 20.38346029 -0.1231188 22.1875 -0.125 C23.46728981 -0.14655655 23.46728981 -0.14655655 24.77293396 -0.16854858 C30.62260462 -0.12322386 30.62260462 -0.12322386 33.20263672 2.08056641 C34.25224478 4.55284566 34.5074056 6.20496967 34.453125 8.8828125 C34.43862305 10.14931641 34.43862305 10.14931641 34.42382812 11.44140625 C34.39869141 12.31410156 34.37355469 13.18679687 34.34765625 14.0859375 C34.32735352 15.41818359 34.32735352 15.41818359 34.30664062 16.77734375 C34.27136934 18.96416328 34.22208377 21.14973716 34.16015625 23.3359375 C26.62957054 20.13903182 26.62957054 20.13903182 24.86328125 17.1171875 C24.71375 16.364375 24.56421875 15.6115625 24.41015625 14.8359375 C23.42058293 10.95425634 22.42549688 8.86394315 19.16015625 6.3359375 C15.13105943 4.32138909 10.31699711 4.78483294 6.03515625 5.87890625 C-0.08007289 8.42293712 -4.0368086 13.43204471 -6.83984375 19.3359375 C-7.16772739 23.49137051 -7.16772739 23.49137051 -5.83984375 27.3359375 C-5.76789506 30.21964083 -5.74692667 33.07833414 -5.77734375 35.9609375 C-5.78185547 36.76273438 -5.78636719 37.56453125 -5.79101562 38.390625 C-5.80281207 40.37242756 -5.8207477 42.35419183 -5.83984375 44.3359375 C-9.71484375 43.4609375 -9.71484375 43.4609375 -10.83984375 42.3359375 C-10.95337391 39.40228004 -11.00403083 36.49305288 -11.0078125 33.55859375 C-11.0111409 32.67691025 -11.0144693 31.79522675 -11.01789856 30.88682556 C-11.02297158 29.01806156 -11.02530677 27.14928846 -11.02514648 25.28051758 C-11.02733183 22.41407406 -11.0454803 19.5480159 -11.06445312 16.68164062 C-11.06738714 14.86979299 -11.06937188 13.05794352 -11.0703125 11.24609375 C-11.07749802 10.3846022 -11.08468353 9.52311066 -11.09208679 8.63551331 C-11.05782678 -0.24455871 -7.93107725 0.02064011 0 0 Z " fill="#F2D231" transform="translate(39.83984375,27.6640625)"/>
<path d="M0 0 C-1.28965176 1.37562854 -2.62689293 2.70766393 -4 4 C-4.66 4 -5.32 4 -6 4 C-6 4.66 -6 5.32 -6 6 C-5.40832031 5.96519531 -4.81664062 5.93039063 -4.20703125 5.89453125 C0.7553896 5.72452988 3.94253193 5.80320698 8 9 C10 11 10 11 10.375 14.8125 C10.28902761 17.97055235 9.97814736 19.03723043 8.3125 21.875 C3.8369168 25.98769807 -0.05979716 26.21791982 -5.9140625 26.16796875 C-8 26 -8 26 -11 25 C-10.67 29.62 -10.34 34.24 -10 39 C-1.75 39 6.5 39 15 39 C15 39.33 15 39.66 15 40 C5.1 40 -4.8 40 -15 40 C-14.01 39.505 -14.01 39.505 -13 39 C-13.11418667 36.41577541 -13.24092362 33.83320487 -13.375 31.25 C-13.4059375 30.52039063 -13.436875 29.79078125 -13.46875 29.0390625 C-13.68156456 25.13746224 -14.22714235 22.43040748 -16 19 C-16.63145329 13.85816606 -15.39067191 11.39207349 -12.3125 7.3125 C-11.28576172 5.91451172 -11.28576172 5.91451172 -10.23828125 4.48828125 C-4.7705314 -1.59017713 -4.7705314 -1.59017713 0 0 Z " fill="#512D29" transform="translate(48,34)"/>
<path d="M0 0 C2.76357184 1.86541099 3.73787075 3.00250143 4.58203125 6.21484375 C5.72219847 13.81240665 6.31710298 22.91346182 3 30 C0.1220665 33.55954933 -1.39583455 34.71346436 -5.88671875 35.515625 C-13.51505536 35.92847471 -13.51505536 35.92847471 -16.88671875 33.8203125 C-19.77471553 30.62613842 -20.1969769 28.12948011 -20 24 C-19.20335937 24.03480469 -18.40671875 24.06960937 -17.5859375 24.10546875 C-9.34647921 24.40361532 -9.34647921 24.40361532 -2 21 C-0.02055064 18.03082597 0.29350581 17.34297721 0.3125 14 C0.32925781 13.319375 0.34601562 12.63875 0.36328125 11.9375 C-0.12825941 9.31594984 -0.82431611 8.54300594 -3 7 C-5.95521077 6.20531949 -5.95521077 6.20531949 -9.1875 5.8125 C-10.81751953 5.57466797 -10.81751953 5.57466797 -12.48046875 5.33203125 C-13.72763672 5.16767578 -13.72763672 5.16767578 -15 5 C-15 4.34 -15 3.68 -15 3 C-10.04437362 -0.04961623 -5.70320122 -0.97583291 0 0 Z " fill="#EC1717" transform="translate(57,35)"/>
<path d="M0 0 C1.8125 1.33984375 1.8125 1.33984375 3 3 C3.43490509 6.40675656 3.39345822 8.3067641 1.6875 11.3125 C-0.98453131 13.98453131 -3.14040348 14.00905829 -6.875 14.25 C-11.06977403 14.21137409 -13.98492125 13.01507875 -17 10 C-16.77021823 3.79589217 -16.77021823 3.79589217 -14.125 1.0625 C-9.50931523 -0.50683282 -4.8219998 -0.76136839 0 0 Z " fill="#25547F" transform="translate(52,43)"/>
<path d="M0 0 C3.8206949 3.8206949 3.05982517 9.80064047 3.09765625 14.93359375 C3.09199855 17.10158679 3.07909622 19.2695631 3.0625 21.4375 C3.041875 25.253125 3.02125 29.06875 3 33 C-5.58 33 -14.16 33 -23 33 C-23.33 30.03 -23.66 27.06 -24 24 C-23.4225 24.825 -22.845 25.65 -22.25 26.5 C-19.4327437 29.341543 -16.91663832 29.45156074 -13 29.5625 C-9.29410115 29.38949735 -7.2220246 29.1110123 -3.875 27.4375 C0.46222691 21.79910501 0.26762358 15.37003308 0.125 8.5625 C0.11597656 7.73556641 0.10695313 6.90863281 0.09765625 6.05664062 C0.07431512 4.03763292 0.03845288 2.01877644 0 0 Z " fill="#860C2F" transform="translate(61,40)"/>
<path d="M0 0 C0.9796875 -0.01417969 1.959375 -0.02835938 2.96875 -0.04296875 C5.5 0.1875 5.5 0.1875 7.5 2.1875 C7.13318342 5.12203261 6.63562754 6.05187246 4.5 8.1875 C2.22265625 8.453125 2.22265625 8.453125 -0.4375 8.4375 C-1.31277344 8.44265625 -2.18804687 8.4478125 -3.08984375 8.453125 C-5.5 8.1875 -5.5 8.1875 -8.5 6.1875 C-8.125 3.75 -8.125 3.75 -7.5 1.1875 C-4.89820337 -0.11339831 -2.9030812 0.01909922 0 0 Z " fill="#72D0EA" transform="translate(44.5,43.8125)"/>
<path d="M0 0 C1.98 0.99 1.98 0.99 4 2 C4.33 8.27 4.66 14.54 5 21 C3.35 21.33 1.7 21.66 0 22 C0 14.74 0 7.48 0 0 Z " fill="#830B31" transform="translate(67,50)"/>
<path d="M0 0 C3 0.125 3 0.125 4 1.125 C4.125 4.125 4.125 4.125 4 7.125 C3 8.125 3 8.125 0 8.25 C-3 8.125 -3 8.125 -4 7.125 C-4.125 4.125 -4.125 4.125 -4 1.125 C-3 0.125 -3 0.125 0 0 Z " fill="#F0BB19" transform="translate(83,10.875)"/>
<path d="M0 0 C2.5625 0.1875 2.5625 0.1875 4.5625 2.1875 C4.00694444 6.74305556 4.00694444 6.74305556 2.5625 8.1875 C0.0625 8.3125 0.0625 8.3125 -2.4375 8.1875 C-3.4375 7.1875 -3.4375 7.1875 -3.5625 4.1875 C-3.39891479 0.26145498 -3.39891479 0.26145498 0 0 Z " fill="#FACD5B" transform="translate(14.4375,58.8125)"/>
<path d="M0 0 C2.31 0 4.62 0 7 0 C6.67 0.99 6.34 1.98 6 3 C3.69 3 1.38 3 -1 3 C-0.67 2.01 -0.34 1.02 0 0 Z " fill="#E5F8FC" transform="translate(40,46)"/>
<path d="M0 0 C1.98 0.495 1.98 0.495 4 1 C3.67 2.32 3.34 3.64 3 5 C1.68 4.67 0.36 4.34 -1 4 C-0.67 2.68 -0.34 1.36 0 0 Z " fill="#FCFCF7" transform="translate(18,41)"/>
<path d="M0 0 C1.98 0.99 1.98 0.99 4 2 C4 3.32 4 4.64 4 6 C2.68 5.67 1.36 5.34 0 5 C0 3.35 0 1.7 0 0 Z " fill="#E41718" transform="translate(67,50)"/>
<path d="M0 0 C1.65 0 3.3 0 5 0 C5 1.32 5 2.64 5 4 C3.68 4 2.36 4 1 4 C0.67 2.68 0.34 1.36 0 0 Z " fill="#FACF5A" transform="translate(78,74)"/>
<path d="M0 0 C1.79093191 -0.08086147 3.58289628 -0.13912702 5.375 -0.1875 C6.87160156 -0.23970703 6.87160156 -0.23970703 8.3984375 -0.29296875 C9.25695313 -0.19628906 10.11546875 -0.09960938 11 0 C11.66 0.99 12.32 1.98 13 3 C8.71 2.34 4.42 1.68 0 1 C0 0.67 0 0.34 0 0 Z " fill="#3F6682" transform="translate(41,43)"/>
<path d="M0 0 C1.32 0 2.64 0 4 0 C4 1.32 4 2.64 4 4 C2.68 4 1.36 4 0 4 C0 2.68 0 1.36 0 0 Z " fill="#9F7F65" transform="translate(23,85)"/>
<path d="M0 0 C1.32 0 2.64 0 4 0 C4 1.32 4 2.64 4 4 C2.68 4 1.36 4 0 4 C0 2.68 0 1.36 0 0 Z " fill="#9F7F65" transform="translate(85,22)"/>
<path d="M0 0 C0.66 0 1.32 0 2 0 C2 0.66 2 1.32 2 2 C1.34 2 0.68 2 0 2 C0 1.34 0 0.68 0 0 Z " fill="#F0BB18" transform="translate(76,12)"/>
</svg>
