<?xml version="1.0" encoding="UTF-8"?>
<svg version="1.1" xmlns="http://www.w3.org/2000/svg" width="512" height="512">
<path d="M0 0 C3.77657966 0.7125622 3.99834594 0.98904023 6.0625 4 C7.17873689 5.85559999 8.25661994 7.73440395 9.3125 9.625 C9.64701172 10.22103027 9.98152344 10.81706055 10.32617188 11.43115234 C11.92561885 14.2857803 13.51488609 17.14572214 15.09033203 20.01367188 C18.60425513 26.40355465 22.24825131 32.7099552 25.9375 39 C31.12072627 47.84235074 36.2396953 56.71903919 41.3125 65.625 C46.93200006 75.48976075 52.6038332 85.32198235 58.35742188 95.109375 C61.63840969 100.7037235 64.84926948 106.33399584 68.02368164 111.98925781 C68.64470135 113.09450302 68.64470135 113.09450302 69.27826691 114.22207642 C70.29002921 116.02285363 71.30131373 117.82389927 72.3125 119.625 C73.027947 119.62923194 73.74339399 119.63346388 74.4805212 119.63782406 C91.86396465 119.74098899 109.2473654 119.8496052 126.63073635 119.96433926 C135.03709439 120.01969067 143.44345667 120.07317576 151.84985352 120.12231445 C159.17420596 120.16513286 166.4985269 120.21140482 173.82283074 120.26187855 C177.70338937 120.28849845 181.58394168 120.31335191 185.46453667 120.33407402 C189.11292618 120.35361063 192.76125564 120.37774527 196.40959167 120.40549088 C198.39536013 120.41937123 200.38116123 120.42830079 202.36695862 120.43711853 C203.5379007 120.44690735 204.70884277 120.45669617 205.91526794 120.46678162 C206.93937995 120.47323417 207.96349195 120.47968672 209.01863766 120.4863348 C211.3125 120.625 211.3125 120.625 212.3125 121.625 C212.76801875 126.52737627 211.77509791 129.28899684 209.3046875 133.4921875 C208.65491943 134.61254395 208.00515137 135.73290039 207.33569336 136.88720703 C206.61985395 138.09160514 205.90378361 139.29586602 205.1875 140.5 C204.45266295 141.75695219 203.71903599 143.01461254 202.98657227 144.27294922 C201.49148404 146.83660582 199.9891969 149.39580728 198.47998047 151.95117188 C196.52750016 155.25707481 194.59074332 158.57187681 192.66015625 161.890625 C190.37990436 165.81018261 188.09460244 169.72670511 185.8046875 173.640625 C180.24012671 183.1628345 174.74381981 192.72456236 169.23876953 202.28125 C166.58215984 206.89277425 163.92420443 211.5035214 161.26538086 216.11376953 C160.00937102 218.29164882 158.75365061 220.46969506 157.49829102 222.64794922 C156.92135498 223.64842285 156.34441895 224.64889648 155.75 225.6796875 C155.193125 226.65518555 154.63625 227.63068359 154.0625 228.63574219 C152.83155231 230.73838219 151.55635309 232.81543014 150.25 234.87207031 C149.59 235.92749023 148.93 236.98291016 148.25 238.0703125 C147.64027344 239.01664551 147.03054688 239.96297852 146.40234375 240.93798828 C145.01814368 243.577254 145.01814368 243.577254 146.01074219 246.24829102 C146.6551123 247.42476196 146.6551123 247.42476196 147.3125 248.625 C147.61704102 249.23190674 147.92158203 249.83881348 148.23535156 250.46411133 C148.5547168 251.0392749 148.87408203 251.61443848 149.203125 252.20703125 C149.7612085 253.21419189 149.7612085 253.21419189 150.33056641 254.24169922 C150.73710449 254.96631348 151.14364258 255.69092773 151.5625 256.4375 C151.99868652 257.21883301 152.43487305 258.00016602 152.88427734 258.80517578 C157.07165044 266.26734535 161.38949892 273.65223703 165.71582031 281.03442383 C170.30207789 288.86754051 174.81977761 296.73807098 179.3125 304.625 C184.37256959 313.50513958 189.46912221 322.36249602 194.625 331.1875 C195.19234863 332.16187012 195.75969727 333.13624023 196.34423828 334.14013672 C199.07406132 338.82288798 201.82669483 343.48907 204.62890625 348.12890625 C205.14606201 348.99507568 205.66321777 349.86124512 206.19604492 350.75366211 C207.15806012 352.36384469 208.13017796 353.9680547 209.11450195 355.56469727 C211.58536635 359.72508978 213.00444494 362.62761988 212.3125 367.625 C210.58590749 369.35159251 208.27016399 368.76838105 205.91526794 368.78321838 C204.15885483 368.79790161 204.15885483 368.79790161 202.36695862 368.81288147 C201.07080124 368.81863693 199.77464386 368.8243924 198.43920898 368.83032227 C197.06961772 368.8398956 195.70002945 368.84990535 194.33044434 368.86032104 C190.6013027 368.88743531 186.87214832 368.90840943 183.14296222 368.92832303 C179.24983043 368.95014251 175.35673821 368.97755089 171.46363831 369.00437927 C164.08654723 369.05436094 156.70943426 369.09927939 149.33230025 369.14240164 C140.93579648 369.19172733 132.53933239 369.24666271 124.14286697 369.30208123 C106.86611463 369.41598528 89.58932549 369.52280588 72.3125 369.625 C71.92472885 370.31980972 71.5369577 371.01461945 71.13743591 371.73048401 C69.34138565 374.94722001 67.54374671 378.16306565 65.74609375 381.37890625 C65.13648804 382.47126587 64.52688232 383.56362549 63.89880371 384.68908691 C59.79696435 392.02358249 55.62060779 399.31032036 51.375 406.5625 C50.40433594 408.22164429 50.40433594 408.22164429 49.4140625 409.91430664 C48.90617187 410.77918701 48.39828125 411.64406738 47.875 412.53515625 C44.18036657 418.84070475 40.52403973 425.16798224 36.875 431.5 C35.9466333 433.11044189 35.9466333 433.11044189 34.99951172 434.75341797 C32.4495468 439.17798745 29.90082531 443.60327211 27.35253906 448.02880859 C14.39786764 470.52446385 14.39786764 470.52446385 8.4375 480.6875 C7.82104614 481.74142944 7.82104614 481.74142944 7.19213867 482.81665039 C4.43297717 487.50452283 4.43297717 487.50452283 3.3125 488.625 C0.46484375 488.9921875 0.46484375 488.9921875 -2.6875 488.625 C-4.49609375 486.6953125 -4.49609375 486.6953125 -6.125 483.75 C-6.445896 483.18756592 -6.76679199 482.62513184 -7.09741211 482.0456543 C-7.85879027 480.70821876 -8.61028184 479.36513043 -9.35449219 478.01806641 C-10.87464131 475.28903679 -12.43832182 472.58767193 -14.0078125 469.88671875 C-16.91754991 464.87677513 -19.81071011 459.8576087 -22.69548035 454.83325195 C-26.18380134 448.75862396 -29.68541282 442.69169823 -33.1875 436.625 C-34.43756112 434.45836859 -35.687561 432.29170186 -36.9375 430.125 C-37.55625 429.0525 -38.175 427.98 -38.8125 426.875 C-40.6875 423.625 -42.5625 420.375 -44.4375 417.125 C-45.05737793 416.05056641 -45.67725586 414.97613281 -46.31591797 413.86914062 C-47.55460002 411.72204864 -48.7932079 409.57491386 -50.03173828 407.42773438 C-52.9728335 402.32911191 -55.91471413 397.23094704 -58.85919189 392.13427734 C-60.25708601 389.71452335 -61.65456089 387.29452737 -63.05200195 384.87451172 C-64.04402324 383.15698948 -65.03665429 381.43981948 -66.02929688 379.72265625 C-66.92358398 378.17384766 -66.92358398 378.17384766 -67.8359375 376.59375 C-68.36364746 375.68044922 -68.89135742 374.76714844 -69.43505859 373.82617188 C-70.22086511 372.44511309 -70.97689248 371.04621505 -71.6875 369.625 C-72.402947 369.62076806 -73.11839399 369.61653612 -73.8555212 369.61217594 C-91.23896465 369.50901101 -108.6223654 369.4003948 -126.00573635 369.28566074 C-134.41209439 369.23030933 -142.81845667 369.17682424 -151.22485352 369.12768555 C-158.54920596 369.08486714 -165.8735269 369.03859518 -173.19783074 368.98812145 C-177.07838937 368.96150155 -180.95894168 368.93664809 -184.83953667 368.91592598 C-188.48792618 368.89638937 -192.13625564 368.87225473 -195.78459167 368.84450912 C-197.77036013 368.83062877 -199.75616123 368.82169921 -201.74195862 368.81288147 C-202.9129007 368.80309265 -204.08384277 368.79330383 -205.29026794 368.78321838 C-206.31437995 368.77676583 -207.33849195 368.77031328 -208.39363766 368.7636652 C-210.6875 368.625 -210.6875 368.625 -211.6875 367.625 C-212.0906732 362.9379542 -211.3271895 360.27340528 -208.93359375 356.265625 C-208.03447266 354.73615234 -208.03447266 354.73615234 -207.1171875 353.17578125 C-206.45976562 352.08652344 -205.80234375 350.99726563 -205.125 349.875 C-204.44002583 348.71826424 -203.75645615 347.56069576 -203.07421875 346.40234375 C-201.65629658 343.99738917 -200.23240821 341.59612441 -198.80419922 339.19726562 C-195.54173411 333.70614588 -192.36939007 328.16304909 -189.1875 322.625 C-187.93792342 320.45808911 -186.687922 318.29142315 -185.4375 316.125 C-184.509375 314.51625 -184.509375 314.51625 -183.5625 312.875 C-181.6875 309.625 -179.8125 306.375 -177.9375 303.125 C-177.31810547 302.05137207 -176.69871094 300.97774414 -176.06054688 299.87158203 C-174.8170949 297.71628689 -173.57360564 295.56101327 -172.33007812 293.40576172 C-169.44287125 288.40162326 -166.5559957 283.3972948 -163.67053223 278.39215088 C-162.66130896 276.64158759 -161.65196164 274.89109589 -160.64257812 273.140625 C-159.3858234 270.96107835 -158.12929414 268.78140168 -156.87304688 266.6015625 C-156.29619141 265.60125 -155.71933594 264.6009375 -155.125 263.5703125 C-154.568125 262.59481445 -154.01125 261.61931641 -153.4375 260.61425781 C-152.20655231 258.51161781 -150.93135309 256.43456986 -149.625 254.37792969 C-148.965 253.32250977 -148.305 252.26708984 -147.625 251.1796875 C-147.01527344 250.23335449 -146.40554687 249.28702148 -145.77734375 248.31201172 C-144.40487084 245.69049668 -144.40487084 245.69049668 -145.33105469 243.09741211 C-145.77868164 242.28151611 -146.22630859 241.46562012 -146.6875 240.625 C-147.32606934 239.39656372 -147.32606934 239.39656372 -147.97753906 238.14331055 C-148.46448242 237.27488525 -148.95142578 236.40645996 -149.453125 235.51171875 C-150.00605225 234.52373291 -150.55897949 233.53574707 -151.12866211 232.51782227 C-151.72557861 231.46006592 -152.32249512 230.40230957 -152.9375 229.3125 C-153.56084229 228.20382568 -154.18418457 227.09515137 -154.82641602 225.95288086 C-160.16623305 216.48559123 -165.62873025 207.09200035 -171.125 197.71484375 C-174.81963322 191.4092956 -178.4760026 185.08204188 -182.125 178.75 C-183.05010376 177.14499634 -183.05010376 177.14499634 -183.99389648 175.50756836 C-185.24985147 173.32806422 -186.50562821 171.14845736 -187.76123047 168.96875 C-190.41784016 164.35722575 -193.07579557 159.7464786 -195.73461914 155.13623047 C-196.99062898 152.95835118 -198.24634939 150.78030494 -199.50170898 148.60205078 C-200.07864502 147.60157715 -200.65558105 146.60110352 -201.25 145.5703125 C-201.80945313 144.59352539 -202.36890625 143.61673828 -202.9453125 142.61035156 C-204.16093741 140.52729924 -205.40843749 138.46266499 -206.6796875 136.41308594 C-207.32164062 135.36668945 -207.96359375 134.32029297 -208.625 133.2421875 C-209.21152344 132.30745605 -209.79804688 131.37272461 -210.40234375 130.40966797 C-211.86774872 127.23443829 -212.01136724 125.0835284 -211.6875 121.625 C-209.96090749 119.89840749 -207.64516399 120.48161895 -205.29026794 120.46678162 C-204.11932587 120.4569928 -202.94838379 120.44720398 -201.74195862 120.43711853 C-200.44580124 120.43136307 -199.14964386 120.4256076 -197.81420898 120.41967773 C-196.44461772 120.4101044 -195.07502945 120.40009465 -193.70544434 120.38967896 C-189.9763027 120.36256469 -186.24714832 120.34159057 -182.51796222 120.32167697 C-178.62483043 120.29985749 -174.73173821 120.27244911 -170.83863831 120.24562073 C-163.46154723 120.19563906 -156.08443426 120.15072061 -148.70730025 120.10759836 C-140.31079648 120.05827267 -131.91433239 120.00333729 -123.51786697 119.94791877 C-106.24111463 119.83401472 -88.96432549 119.72719412 -71.6875 119.625 C-71.40277643 119.1112702 -71.11805286 118.5975404 -70.82470131 118.06824303 C-69.51860051 115.71235162 -68.21169879 113.35690542 -66.90478516 111.00146484 C-66.45696182 110.19341904 -66.00913849 109.38537323 -65.54774475 108.55284119 C-62.13430105 102.40278254 -58.63460025 96.30934042 -55.0625 90.25 C-49.87734001 81.40878484 -44.76075492 72.53068184 -39.6875 63.625 C-33.02049187 51.92652169 -26.26648032 40.28095265 -19.46240234 28.66162109 C-17.54906302 25.38815279 -15.64301288 22.11051508 -13.73828125 18.83203125 C-13.09197754 17.72053711 -12.44567383 16.60904297 -11.77978516 15.46386719 C-10.53225608 13.31802764 -9.28579601 11.17156616 -8.04052734 9.02441406 C-7.48445801 8.06889648 -6.92838867 7.11337891 -6.35546875 6.12890625 C-5.86328857 5.28142822 -5.3711084 4.4339502 -4.86401367 3.56079102 C-3.14429523 0.73123145 -3.14429523 0.73123145 0 0 Z M-4.6875 21.625 C-5.09363525 22.3370459 -5.49977051 23.0490918 -5.91821289 23.78271484 C-15.1719457 40.00236201 -24.4634975 56.19931245 -33.80664062 72.36767578 C-35.74328247 75.72160563 -37.67674573 79.0773503 -39.609375 82.43359375 C-40.90623189 84.68490627 -42.20310664 86.93620849 -43.5 89.1875 C-44.12084473 90.26596191 -44.74168945 91.34442383 -45.38134766 92.45556641 C-48.1788598 97.30772318 -50.98879449 102.15084941 -53.8515625 106.96484375 C-54.32489014 107.76140381 -54.79821777 108.55796387 -55.28588867 109.37866211 C-56.1517552 110.8311394 -57.02145536 112.28134118 -57.89575195 113.72875977 C-59.99196006 116.95132422 -59.99196006 116.95132422 -60.6875 120.625 C-41.8775 120.625 -23.0675 120.625 -3.6875 120.625 C-3.6875 87.955 -3.6875 55.285 -3.6875 21.625 C-4.0175 21.625 -4.3475 21.625 -4.6875 21.625 Z M4.3125 21.625 C4.3125 54.295 4.3125 86.965 4.3125 120.625 C23.1225 120.625 41.9325 120.625 61.3125 120.625 C60.07790872 117.5385218 59.00035459 114.88574518 57.421875 112.04296875 C57.04973877 111.37136719 56.67760254 110.69976562 56.29418945 110.0078125 C55.88773193 109.28335938 55.48127441 108.55890625 55.0625 107.8125 C54.62703857 107.03261719 54.19157715 106.25273438 53.74291992 105.44921875 C48.94004585 96.89146158 43.97456012 88.42882282 39.015625 79.9609375 C35.27615413 73.57218012 31.57124373 67.16384268 27.875 60.75 C27.26366211 59.6892627 26.65232422 58.62852539 26.02246094 57.53564453 C24.77133582 55.3643434 23.5203609 53.19295573 22.26953125 51.02148438 C19.14601705 45.60053508 16.01895884 40.18163134 12.89205933 34.76263428 C11.28336318 31.97465241 9.67489358 29.18653985 8.06640625 26.3984375 C7.53345947 25.47466309 7.0005127 24.55088867 6.45141602 23.59912109 C6.07557373 22.94766113 5.69973145 22.29620117 5.3125 21.625 C4.9825 21.625 4.6525 21.625 4.3125 21.625 Z M-199.6875 128.625 C-194.71876251 138.6060914 -194.71876251 138.6060914 -189.25 148.25 C-188.3790806 149.71156818 -187.50937049 151.17385737 -186.640625 152.63671875 C-186.17076172 153.42739746 -185.70089844 154.21807617 -185.21679688 155.03271484 C-182.27397492 160.02104235 -179.39016469 165.04354408 -176.5 170.0625 C-175.86263916 171.16867676 -175.22527832 172.27485352 -174.56860352 173.41455078 C-173.25987584 175.68623665 -171.95136516 177.95804755 -170.64306641 180.22998047 C-167.49417946 185.6966998 -164.34066842 191.16074948 -161.1875 196.625 C-159.9570077 198.75779892 -158.72653908 200.89061149 -157.49609375 203.0234375 C-156.87976074 204.09174805 -156.26342773 205.16005859 -155.62841797 206.26074219 C-149.98144531 216.04882812 -144.33447266 225.83691406 -138.6875 235.625 C-136.3999904 232.69524778 -134.48771208 229.68499635 -132.640625 226.4609375 C-132.05087891 225.43484375 -131.46113281 224.40875 -130.85351562 223.3515625 C-130.22123047 222.24554688 -129.58894531 221.13953125 -128.9375 220 C-128.26785607 218.83317378 -127.59792916 217.66650991 -126.92773438 216.5 C-125.53601231 214.07712488 -124.14550896 211.65355654 -122.75585938 209.22949219 C-119.57778979 203.68809989 -116.38176919 198.15706414 -113.1875 192.625 C-109.4236615 186.1027824 -105.66105368 179.5798622 -101.90234375 173.0546875 C-100.64330561 170.86974762 -99.38419149 168.68485151 -98.125 166.5 C-97.51454834 165.44047119 -96.90409668 164.38094238 -96.27514648 163.28930664 C-93.07808916 157.74658455 -89.86694404 152.2125513 -86.6328125 146.69140625 C-85.98127197 145.57846191 -85.32973145 144.46551758 -84.65844727 143.31884766 C-83.40834876 141.18582811 -82.15630464 139.05394736 -80.90209961 136.92333984 C-80.07077515 135.50529053 -80.07077515 135.50529053 -79.22265625 134.05859375 C-78.731604 133.22384521 -78.24055176 132.38909668 -77.73461914 131.52905273 C-76.60718668 129.84112506 -76.60718668 129.84112506 -76.6875 128.625 C-117.2775 128.625 -157.8675 128.625 -199.6875 128.625 Z M-66.6875 128.625 C-71.3075 136.875 -75.9275 145.125 -80.6875 153.625 C-88.3288124 166.77356459 -88.3288124 166.77356459 -91.125 171.53515625 C-94.81963296 177.84070394 -98.47605706 184.16792711 -102.125 190.5 C-102.74246094 191.57145264 -103.35992187 192.64290527 -103.99609375 193.74682617 C-105.25273415 195.92782225 -106.50924374 198.1088937 -107.765625 200.29003906 C-110.39896563 204.85958086 -113.03598745 209.42698958 -115.67431641 213.99365234 C-116.9580606 216.21891606 -118.2390616 218.44576495 -119.51708984 220.67431641 C-122.11640945 225.20376167 -124.72098366 229.71974778 -127.4765625 234.15625 C-127.86980713 234.80110352 -128.26305176 235.44595703 -128.66821289 236.11035156 C-129.65067438 237.71297663 -130.65426895 239.30259842 -131.66015625 240.890625 C-133.03635185 244.55350303 -132.1037768 246.03403504 -130.6875 249.625 C-129.79294841 251.35148126 -128.84530721 253.05130006 -127.8515625 254.72265625 C-127.00489014 256.15834961 -127.00489014 256.15834961 -126.14111328 257.62304688 C-125.5376709 258.63431641 -124.93422852 259.64558594 -124.3125 260.6875 C-123.05123596 262.82371867 -121.7908371 264.96044837 -120.53125 267.09765625 C-119.89316406 268.17805176 -119.25507813 269.25844727 -118.59765625 270.37158203 C-115.62668703 275.43179877 -112.71642797 280.52609875 -109.8125 285.625 C-109.29510254 286.53258057 -108.77770508 287.44016113 -108.24462891 288.37524414 C-107.05794386 290.45794352 -105.87216334 292.54115021 -104.6875 294.625 C-104.0275 294.625 -103.3675 294.625 -102.6875 294.625 C-102.27612793 293.90248047 -101.86475586 293.17996094 -101.44091797 292.43554688 C-93.65902151 278.77461858 -85.84607684 265.13463683 -77.9074707 251.56396484 C-71.75213149 241.03804776 -65.66492889 230.47315833 -59.57861328 219.90722656 C-56.45069852 214.47840058 -53.31891552 209.05180719 -50.1875 203.625 C-48.93748121 201.45834417 -47.68748122 199.2916775 -46.4375 197.125 C-38.9375 184.125 -38.9375 184.125 -37.06005859 180.87109375 C-35.81782038 178.71766491 -34.57595463 176.56402116 -33.33447266 174.41015625 C-30.43620197 169.38293245 -27.53451928 164.35778998 -24.61895752 159.34057617 C-23.59334372 157.57524789 -22.56895336 155.80921529 -21.54492188 154.04296875 C-20.26478534 151.8358368 -18.98239334 149.63001077 -17.69726562 147.42578125 C-17.11396484 146.41902344 -16.53066406 145.41226563 -15.9296875 144.375 C-15.16954346 143.06789062 -15.16954346 143.06789062 -14.39404297 141.734375 C-12.03242246 137.4314281 -9.88261291 133.01522583 -7.6875 128.625 C-27.1575 128.625 -46.6275 128.625 -66.6875 128.625 Z M8.3125 128.625 C13.77927912 139.6930436 13.77927912 139.6930436 19.8125 150.375 C20.67435541 151.81830744 21.53494631 153.26237044 22.39453125 154.70703125 C22.85811035 155.4851416 23.32168945 156.26325195 23.79931641 157.06494141 C26.74023329 162.04049069 29.61619562 167.05370896 32.5 172.0625 C33.13744141 173.16883789 33.77488281 174.27517578 34.43164062 175.41503906 C35.74029629 177.68655677 37.04872549 179.95820497 38.35693359 182.22998047 C41.50582054 187.6966998 44.65933264 193.16074887 47.8125 198.625 C49.0625235 200.79165311 50.31252347 202.95831979 51.5625 205.125 C52.18125 206.1975 52.8 207.27 53.4375 208.375 C74.0625 244.125 74.0625 244.125 75.94042969 247.38012695 C77.18060761 249.52973634 78.42084127 251.67931358 79.66113281 253.82885742 C82.5860023 258.89809212 85.51030833 263.96764936 88.43261719 269.0383606 C89.81056938 271.42926597 91.18884172 273.81998672 92.56713867 276.21069336 C93.53790982 277.89483963 94.50821874 279.57925231 95.47851562 281.26367188 C96.06826172 282.28654297 96.65800781 283.30941406 97.265625 284.36328125 C97.78286133 285.26087158 98.30009766 286.15846191 98.83300781 287.08325195 C99.56535645 288.34141724 99.56535645 288.34141724 100.3125 289.625 C100.8290918 290.55852295 101.34568359 291.4920459 101.87792969 292.45385742 C102.35133789 293.17033447 102.82474609 293.88681152 103.3125 294.625 C103.9725 294.625 104.6325 294.625 105.3125 294.625 C105.8701001 293.62255249 105.8701001 293.62255249 106.43896484 292.59985352 C113.24493441 280.37532543 120.07419813 268.17427281 127.2265625 256.1484375 C127.56848633 255.5615918 127.91041016 254.97474609 128.26269531 254.37011719 C128.9868555 253.16632718 129.74957074 251.98518954 130.54199219 250.82519531 C132.39574023 247.99269308 133.39753695 246.27237806 132.94921875 242.859375 C130.53036618 238.07939904 127.8692577 233.47473529 125.125 228.875 C123.84830222 226.71132451 122.57228329 224.54724834 121.296875 222.3828125 C120.63751953 221.26680664 119.97816406 220.15080078 119.29882812 219.00097656 C116.12324644 213.6037367 112.9987344 208.17736 109.875 202.75 C108.61591652 200.56508624 107.35680177 198.38019051 106.09765625 196.1953125 C105.47262207 195.11024414 104.84758789 194.02517578 104.20361328 192.90722656 C101.69846674 188.55928051 99.19078286 184.21280094 96.68286133 179.86645508 C95.44164474 177.71534782 94.200595 175.56414427 92.9597168 173.4128418 C90.05622822 168.3791364 87.1518059 163.3459768 84.24395752 158.31478882 C83.21904597 156.54137392 82.19443877 154.76778354 81.16992188 152.99414062 C79.88797262 150.77504227 78.60545893 148.55626984 77.32226562 146.33789062 C76.44731445 144.82291992 76.44731445 144.82291992 75.5546875 143.27734375 C74.79454346 141.96237915 74.79454346 141.96237915 74.01904297 140.62084961 C71.75156384 136.64027215 69.53727784 132.62960011 67.3125 128.625 C47.8425 128.625 28.3725 128.625 8.3125 128.625 Z M77.3125 128.625 C87.19479171 146.74253479 97.3036105 164.71068666 107.73828125 182.515625 C118.06482468 200.14004876 128.19804823 217.87824068 138.3125 235.625 C141.0033148 232.39233025 143.25134808 229.19722803 145.2734375 225.51171875 C145.81991943 224.52373291 146.36640137 223.53574707 146.92944336 222.51782227 C147.50960205 221.46006592 148.08976074 220.40230957 148.6875 219.3125 C153.45098026 210.71574565 158.27866631 202.16584764 163.25 193.6875 C169.36780932 183.2482108 175.43017422 172.77827586 181.46875 162.29296875 C183.81160467 158.2251085 186.15958387 154.16030363 188.51451111 150.09942627 C189.92169456 147.67274161 191.32735015 145.24517349 192.73294067 142.81756592 C193.73448042 141.08928102 194.73819505 139.36225706 195.74194336 137.63525391 C196.34143799 136.59933105 196.94093262 135.5634082 197.55859375 134.49609375 C198.35801392 133.11828735 198.35801392 133.11828735 199.17358398 131.71264648 C200.39231948 129.87504129 200.39231948 129.87504129 200.3125 128.625 C159.7225 128.625 119.1325 128.625 77.3125 128.625 Z M-4.6875 141.625 C-5.09363525 142.3370459 -5.49977051 143.0490918 -5.91821289 143.78271484 C-15.17779763 160.01261908 -24.47525023 176.21980146 -33.82421875 192.3984375 C-35.7078505 195.66024007 -37.58872321 198.92361844 -39.46875 202.1875 C-46.05604917 213.62135142 -52.67329677 225.03648557 -59.33691406 236.42602539 C-64.29406403 244.91531925 -69.16812876 253.45082865 -74.02853394 261.99572754 C-78.65250016 270.12304422 -83.36013372 278.18190449 -88.28125 286.1328125 C-89.85130913 288.43837917 -89.85130913 288.43837917 -89.6875 290.625 C-85.15625604 288.97087599 -81.06885943 286.72798274 -76.875 284.375 C-76.09511719 283.93953857 -75.31523437 283.50407715 -74.51171875 283.05541992 C-65.97069798 278.26193883 -57.52429253 273.30684046 -49.07421875 268.35546875 C-41.36160619 263.84038928 -33.61209011 259.38941896 -25.85546875 254.95043945 C-23.88221659 253.81667109 -21.92192003 252.6599079 -19.97839355 251.47590637 C-16.6875 249.625 -16.6875 249.625 -13.29138184 248.32284546 C-9.40008053 246.60374699 -6.24992221 245.09460723 -3.6875 241.625 C-1.27572949 234.47102384 -2.18108926 226.39568324 -2.41796875 218.96875 C-2.44223359 216.73821378 -2.46073002 214.50760798 -2.47370911 212.27697754 C-2.52320798 206.42251273 -2.65076768 200.5722811 -2.79486084 194.71948242 C-2.9281591 188.74065423 -2.98728585 182.7611377 -3.05273438 176.78125 C-3.19190933 165.06064593 -3.41359877 153.34317572 -3.6875 141.625 C-4.0175 141.625 -4.3475 141.625 -4.6875 141.625 Z M4.3125 141.625 C4.01098506 154.52455911 3.78015528 167.42327746 3.63894176 180.32564545 C3.57115537 186.3173232 3.4792652 192.30658689 3.33178711 198.296875 C3.19028578 204.08075045 3.11275903 209.86230845 3.07909584 215.64778137 C3.05511641 217.85208128 3.00828308 220.05625732 2.93800926 222.25956726 C2.08495125 233.26430124 2.08495125 233.26430124 5.54609489 243.30038261 C9.01124724 246.42442173 12.98061382 247.95877289 17.3125 249.625 C19.49121139 250.84370777 21.65426976 252.09127331 23.79296875 253.37890625 C26.02750566 254.65044328 28.26322074 255.91991167 30.5 257.1875 C32.95895352 258.58615093 35.41692619 259.98652249 37.875 261.38671875 C38.49324142 261.73861267 39.11148285 262.09050659 39.74845886 262.45306396 C46.1780057 266.11395088 52.59112811 269.80302907 59 273.5 C60.06951904 274.11633301 61.13903809 274.73266602 62.2409668 275.36767578 C67.05755567 278.14810171 71.86428933 280.94263081 76.64453125 283.78515625 C77.44221924 284.25904785 78.23990723 284.73293945 79.06176758 285.22119141 C80.51592336 286.0877856 81.96776094 286.95828704 83.41674805 287.83349609 C86.6390675 289.92956289 86.6390675 289.92956289 90.3125 290.625 C89.02141809 287.23497279 87.55468459 284.10339169 85.765625 280.94921875 C85.25789551 280.05162842 84.75016602 279.15403809 84.22705078 278.22924805 C83.40309814 276.78545776 83.40309814 276.78545776 82.5625 275.3125 C81.98612793 274.29776611 81.40975586 273.28303223 80.81591797 272.23754883 C75.58209599 263.0469122 70.25225958 253.91311786 64.91015625 244.78515625 C59.29571325 235.18557762 53.7544968 225.54364049 48.20361328 215.90722656 C45.07569852 210.47840059 41.94392753 205.05180025 38.8125 199.625 C34.36788453 191.92150385 29.92390285 184.21764284 25.48095703 176.51318359 C23.60553074 173.26209464 21.72856661 170.01189693 19.8515625 166.76171875 C17.54648326 162.76896977 15.24992767 158.77152387 12.9609375 154.76953125 C12.44756836 153.87484131 11.93419922 152.98015137 11.40527344 152.05834961 C10.44978525 150.39292036 9.49715908 148.72584477 8.54785156 147.05688477 C7.49751847 145.22980223 6.40951039 143.42444392 5.3125 141.625 C4.9825 141.625 4.6525 141.625 4.3125 141.625 Z M-6.8515625 253.37890625 C-8.39070313 254.27802734 -8.39070313 254.27802734 -9.9609375 255.1953125 C-11.06695312 255.85273438 -12.17296875 256.51015625 -13.3125 257.1875 C-14.4786293 257.87201002 -15.6453057 258.55558879 -16.8125 259.23828125 C-19.23814254 260.65801526 -21.66137561 262.08173795 -24.08300781 263.50830078 C-29.59604758 266.75153688 -35.14338849 269.93528361 -40.6875 273.125 C-42.82959295 274.36038953 -44.97151901 275.59606847 -47.11328125 276.83203125 C-48.18271973 277.44900879 -49.2521582 278.06598633 -50.35400391 278.70166016 C-53.25253518 280.37403671 -56.15094956 282.04661547 -59.04928589 283.71932983 C-60.83816918 284.75173478 -62.62708717 285.78407956 -64.41601562 286.81640625 C-66.66087636 288.11185948 -68.9056719 289.4074257 -71.15039062 290.703125 C-76.32321774 293.68807914 -81.49895009 296.66745317 -86.6875 299.625 C-86.6875 299.955 -86.6875 300.285 -86.6875 300.625 C-29.2675 300.625 28.1525 300.625 87.3125 300.625 C83.75422277 297.77837822 80.85367419 295.66784462 76.953125 293.5234375 C75.92904541 292.95633057 74.90496582 292.38922363 73.84985352 291.80493164 C72.76502686 291.2093042 71.6802002 290.61367676 70.5625 290 C63.28936552 285.96792194 56.02486321 281.93507785 48.875 277.6875 C40.54114172 272.73943492 32.14623892 267.89966693 23.74633789 263.06469727 C22.69953857 262.46197998 21.65273926 261.8592627 20.57421875 261.23828125 C19.54345215 260.64740723 18.51268555 260.0565332 17.45068359 259.44775391 C15.28498816 258.18985114 13.13229686 256.90938366 10.99072266 255.61083984 C9.92772949 254.96969238 8.86473633 254.32854492 7.76953125 253.66796875 C6.81667236 253.08426514 5.86381348 252.50056152 4.88208008 251.89916992 C0.13541785 249.54545684 -2.60455382 250.87185981 -6.8515625 253.37890625 Z M-138.6875 253.625 C-139.00799316 254.19605469 -139.32848633 254.76710938 -139.65869141 255.35546875 C-146.44551351 267.43586805 -153.30941424 279.46595429 -160.31079102 291.42333984 C-165.28785758 299.92585714 -170.2090172 308.45976252 -175.11889648 317.0012207 C-178.21912375 322.38393885 -181.34426282 327.7494077 -184.5234375 333.0859375 C-185.12986084 334.10413574 -185.73628418 335.12233398 -186.36108398 336.17138672 C-187.51280969 338.09990956 -188.66840344 340.02612911 -189.82836914 341.94970703 C-190.33746826 342.80161621 -190.84656738 343.65352539 -191.37109375 344.53125 C-191.82025146 345.27697266 -192.26940918 346.02269531 -192.73217773 346.79101562 C-193.84149362 348.57598283 -193.84149362 348.57598283 -193.6875 350.625 C-190.14315573 349.28044302 -186.87950807 347.71271656 -183.57421875 345.859375 C-182.58623291 345.30644775 -181.59824707 344.75352051 -180.58032227 344.18383789 C-179.52256592 343.58692139 -178.46480957 342.99000488 -177.375 342.375 C-176.26632568 341.75165771 -175.15765137 341.12831543 -174.01538086 340.48608398 C-164.57804637 335.16316249 -155.2135469 329.71909491 -145.8671875 324.23828125 C-141.42414144 321.63460723 -136.97024388 319.05070387 -132.5078125 316.48046875 C-131.91034714 316.13633438 -131.31288177 315.79220001 -130.6973114 315.43763733 C-127.79074305 313.76419452 -124.88317295 312.09251816 -121.97485352 310.42211914 C-120.93514404 309.82391357 -119.89543457 309.22570801 -118.82421875 308.609375 C-117.44302856 307.81611816 -117.44302856 307.81611816 -116.03393555 307.00683594 C-114.21687233 305.93675189 -112.44208054 304.79472036 -110.6875 303.625 C-111.2710396 299.7434003 -112.41864249 296.98656509 -114.42578125 293.625 C-115.2772876 292.18447266 -115.2772876 292.18447266 -116.14599609 290.71484375 C-116.75781738 289.69519531 -117.36963867 288.67554688 -118 287.625 C-119.27040785 285.47968553 -120.53992077 283.33384088 -121.80859375 281.1875 C-122.45296387 280.10082031 -123.09733398 279.01414062 -123.76123047 277.89453125 C-126.74363753 272.83237721 -129.65618453 267.73110862 -132.5625 262.625 C-133.33847534 261.26375 -133.33847534 261.26375 -134.13012695 259.875 C-135.3169331 257.79224166 -136.50278172 255.70894642 -137.6875 253.625 C-138.0175 253.625 -138.3475 253.625 -138.6875 253.625 Z M138.3125 253.625 C137.75304687 254.6459375 137.19359375 255.666875 136.6171875 256.71875 C118.92517202 288.85430009 118.92517202 288.85430009 112.56225586 298.1940918 C111.14666308 300.48480758 111.14666308 300.48480758 111.32983398 302.75244141 C112.72717583 305.41520213 114.39494903 306.17148098 117.03515625 307.5859375 C118.03603271 308.13241943 119.03690918 308.67890137 120.06811523 309.24194336 C121.15938721 309.82210205 122.25065918 310.40226074 123.375 311 C125.68075446 312.25715965 127.98541655 313.51632458 130.2890625 314.77734375 C130.8778569 315.09778152 131.46665131 315.4182193 132.07328796 315.74836731 C137.86637885 318.90626136 143.56333428 322.21787903 149.25 325.5625 C151.21332224 326.7139159 153.17686689 327.86495264 155.140625 329.015625 C156.13384766 329.59763672 157.12707031 330.17964844 158.15039062 330.77929688 C165.03255494 334.7963724 171.94265303 338.76532059 178.84936523 342.73999023 C179.88262939 343.33497314 180.91589355 343.92995605 181.98046875 344.54296875 C182.89078857 345.06656982 183.8011084 345.5901709 184.73901367 346.12963867 C186.51706523 347.16280116 188.2768965 348.22773695 190.02075195 349.31762695 C192.1622949 350.79017034 192.1622949 350.79017034 194.3125 350.625 C192.8964494 346.83981268 191.15828935 343.42750679 189.14453125 339.92578125 C188.50628418 338.81235352 187.86803711 337.69892578 187.21044922 336.55175781 C186.51539367 335.34695086 185.8202414 334.14219971 185.125 332.9375 C184.40355251 331.68211328 183.68236506 330.42657708 182.96142578 329.17089844 C181.1074706 325.94379708 179.24948535 322.71903586 177.39031982 319.49493408 C176.36483129 317.71579075 175.34055128 315.93595951 174.31689453 314.15576172 C166.96349621 301.367816 159.56295929 288.60815238 152.12011719 275.87207031 C147.80434543 268.48252943 143.53279532 261.0694961 139.3125 253.625 C138.9825 253.625 138.6525 253.625 138.3125 253.625 Z M-95.6875 308.625 C-91.21767403 317.69887776 -91.21767403 317.69887776 -86.35546875 326.484375 C-85.78376953 327.45632813 -85.21207031 328.42828125 -84.62304688 329.4296875 C-84.04619141 330.40164063 -83.46933594 331.37359375 -82.875 332.375 C-77.34966557 341.72459669 -72.01438908 351.15497497 -66.6875 360.625 C-22.4675 360.625 21.7525 360.625 67.3125 360.625 C70.6125 354.685 73.9125 348.745 77.3125 342.625 C80.31363347 337.45418966 83.33630597 332.29904542 86.38476562 327.15625 C87.24038086 325.7021875 87.24038086 325.7021875 88.11328125 324.21875 C88.60997314 323.38021484 89.10666504 322.54167969 89.6184082 321.67773438 C91.99106537 317.40223283 94.12574828 312.99850345 96.3125 308.625 C32.9525 308.625 -30.4075 308.625 -95.6875 308.625 Z M-112.31640625 314.16015625 C-113.7247876 314.99148071 -113.7247876 314.99148071 -115.16162109 315.83959961 C-116.18078613 316.44940674 -117.19995117 317.05921387 -118.25 317.6875 C-120.44100243 318.98245433 -122.63242277 320.27670178 -124.82421875 321.5703125 C-125.95907715 322.24223633 -127.09393555 322.91416016 -128.26318359 323.60644531 C-133.67451952 326.79630168 -139.11789151 329.92988343 -144.5625 333.0625 C-146.72269709 334.3072208 -148.88285298 335.55201308 -151.04296875 336.796875 C-152.12497559 337.42013672 -153.20698242 338.04339844 -154.32177734 338.68554688 C-157.8364325 340.71082038 -161.35005469 342.73787479 -164.86328125 344.765625 C-165.45343018 345.10622452 -166.0435791 345.44682404 -166.65161133 345.79774475 C-169.48442756 347.43269907 -172.31719 349.06774655 -175.14990234 350.70288086 C-180.32291404 353.68787833 -185.49879233 356.66736324 -190.6875 359.625 C-190.6875 359.955 -190.6875 360.285 -190.6875 360.625 C-153.0675 360.625 -115.4475 360.625 -76.6875 360.625 C-88.74959422 338.43518873 -88.74959422 338.43518873 -101.375 316.5625 C-101.95636719 315.58152344 -102.53773438 314.60054688 -103.13671875 313.58984375 C-103.64847656 312.94144531 -104.16023438 312.29304688 -104.6875 311.625 C-108.17896209 311.625 -109.34987751 312.39288104 -112.31640625 314.16015625 Z M105.3125 311.625 C103.7362672 313.8884703 102.39551977 316.09532081 101.0625 318.5 C100.43299438 319.60371948 100.43299438 319.60371948 99.79077148 320.72973633 C98.83739359 322.4013267 97.88840247 324.07542362 96.94287109 325.75146484 C95.12412975 328.95700327 93.27717789 332.14524538 91.42578125 335.33203125 C87.47478167 342.13733178 87.47478167 342.13733178 83.53515625 348.94921875 C82.98609619 349.89885498 82.43703613 350.84849121 81.87133789 351.8269043 C80.26383035 354.71236144 78.78965561 357.67068879 77.3125 360.625 C114.9325 360.625 152.5525 360.625 191.3125 360.625 C187.1355063 357.24114855 187.1355063 357.24114855 182.73046875 354.5390625 C182.05886719 354.17337158 181.38726562 353.80768066 180.6953125 353.4309082 C179.97085938 353.0412085 179.24640625 352.65150879 178.5 352.25 C171.20204581 348.25949674 163.98840861 344.14339774 156.8125 339.9375 C146.97249643 334.1721029 137.10555974 328.45589939 127.21679688 322.7746582 C126.19908203 322.189021 125.18136719 321.60338379 124.1328125 321 C123.15731445 320.43925781 122.18181641 319.87851562 121.17675781 319.30078125 C117.5299211 317.16713931 113.94177225 314.94300415 110.36669922 312.69140625 C108.25448621 311.39462592 108.25448621 311.39462592 105.3125 311.625 Z M-60.6875 368.625 C-59.23627547 372.25306134 -57.81205815 375.36728784 -55.921875 378.73828125 C-55.36894775 379.72626709 -54.81602051 380.71425293 -54.24633789 381.73217773 C-53.64942139 382.78993408 -53.05250488 383.84769043 -52.4375 384.9375 C-51.81415771 386.04617432 -51.19081543 387.15484863 -50.54858398 388.29711914 C-45.20876695 397.76440877 -39.74626975 407.15799965 -34.25 416.53515625 C-30.55536692 422.84070415 -26.89896714 429.16794086 -23.25 435.5 C-22.63833984 436.56130127 -22.02667969 437.62260254 -21.39648438 438.71606445 C-20.14568271 440.88679473 -18.89503341 443.0576128 -17.64453125 445.22851562 C-14.52101705 450.64946492 -11.39395884 456.06836866 -8.26705933 461.48736572 C-6.65836318 464.27534759 -5.04989358 467.06346015 -3.44140625 469.8515625 C-2.90845947 470.77533691 -2.3755127 471.69911133 -1.82641602 472.65087891 C-1.45057373 473.30233887 -1.07473145 473.95379883 -0.6875 474.625 C-0.0275 474.625 0.6325 474.625 1.3125 474.625 C1.71863525 473.9129541 2.12477051 473.2009082 2.54321289 472.46728516 C11.80279763 456.23738092 21.10025023 440.03019854 30.44921875 423.8515625 C32.3328505 420.58975993 34.21372321 417.32638156 36.09375 414.0625 C36.71942871 412.97662598 37.34510742 411.89075195 37.98974609 410.77197266 C39.23521254 408.61039 40.48033619 406.44860979 41.72509766 404.28662109 C44.91552809 398.75254555 48.12546807 393.23074767 51.3671875 387.7265625 C52.01872803 386.61812988 52.67026855 385.50969727 53.34155273 384.36767578 C54.5898778 382.24662506 55.84184949 380.12771524 57.09790039 378.01123047 C57.6521167 377.06908691 58.20633301 376.12694336 58.77734375 375.15625 C59.268396 374.32673828 59.75944824 373.49722656 60.26538086 372.64257812 C61.46605086 370.70799336 61.46605086 370.70799336 61.3125 368.625 C21.0525 368.625 -19.2075 368.625 -60.6875 368.625 Z " fill="#000000" transform="translate(255.6875,11.375)"/>
</svg>
